<?xml version='1.0' encoding='utf-8'?>
<svg xmlns="http://www.w3.org/2000/svg" enable-background="new 0 0 2218 1657.9141" version="1.1" viewBox="0 0 2218 1657.9141">
	<path d="m1569.5 756.38c167.07 31.091 340.34 34.077 398.88-27.961 52.188-55.304 12.343-140.78-46.747-224.12-40.553-58.741-83.741-117.92-134.56-173.01-60.615-65.699-61.654-133.86-1.3108-209.71 33.606-43.192 72.999-77.013 123.64-92.621-62.142 71.439-59.483 143.36-3.0581 212.77 52.121 64.112 137.86 138.5 220.19 228.49 75.145 82.135 73.834 215.82-28.834 290.97-101.37 71.047-286.5 60.628-528.2-4.8058z"/>
	<path d="m1439.8 691.82c-47.225-69.225-98.654-233.76-94.47-274.04 0.3362-3.2361 4.1588-4.7489 6.6239-2.6256 95.014 81.839 193.01 144.14 296.34 171.49 131.32 36.742 235.79 43.843 248.7-50.133 60.637 76.719 69.549 135.99 16.383 174.32-104.92 50.355-267.48 31.085-459.02-9.257-5.9311-1.2493-11.147-4.7462-14.562-9.7532z"/>
	<path d="m648.52 756.38c-167.07 31.091-340.34 34.077-398.88-27.961-52.188-55.304-12.343-140.78 46.747-224.12 40.553-58.741 83.741-117.92 134.56-173.01 60.614-65.699 61.654-133.86 1.3107-209.71-33.606-43.192-72.999-77.013-123.64-92.621 62.142 71.439 59.483 143.36 3.0581 212.77-52.121 64.112-137.86 138.5-220.19 228.49-75.145 82.135-73.834 215.82 28.835 290.97 101.37 71.046 286.5 60.628 528.2-4.8059z"/>
	<path d="m778.15 691.82c47.225-69.225 98.654-233.76 94.47-274.04-0.3361-3.2361-4.1587-4.7489-6.6238-2.6256-95.014 81.839-193.01 144.14-296.34 171.49-131.32 36.742-235.79 43.843-248.7-50.133-60.637 76.719-69.549 135.99-16.383 174.32 104.92 50.355 267.48 31.085 459.02-9.257 5.9311-1.2493 11.147-4.7462 14.562-9.7532z"/>
	<path d="m1463.5 756.38c-87.815-35.06-182.18-240.18-150.73-346.02-63.047-8.6763-120.35-27.29-172.35-55.048l-12.124 1024.9h-39.32l-12.124-1024.9c-52.007 27.759-109.31 46.372-172.35 55.048 31.456 105.84-62.912 310.96-150.73 346.02-48.231 93.734-59.908 149.65-25.558 157.94 35.06-70.448 193-65.861 243.13-19.005 4.8883 69.995-104.53 114.68-214.95 74.053 7.864 61.601 109.44 167.77 186.12 285.07 41.903 58.814 67.674 118.65 55.704 180.87l3.4405-0.1638c-30.116 55.648-30.883 98.382 8.7651 150.81 23.281 30.785 57.515 43.011 97.891 43.006h0.6553c40.375 0.0048 74.61-12.222 97.891-43.006 39.648-52.427 38.881-95.161 8.7651-150.81l3.4404 0.1638c-11.97-62.223 13.8-122.06 55.704-180.87 76.674-117.3 178.25-223.47 186.12-285.07-110.42 40.631-219.84-4.0583-214.95-74.053 50.133-46.856 208.07-51.444 243.13 19.005 34.35-8.2901 22.673-64.202-25.558-157.94zm-353.88 819.17h-1.9661c-40.729 0.5153-71.759-25.558-71.759-70.448 0-40.958 30.226-67.002 72.742-71.432 42.516 4.4301 72.742 30.473 72.742 71.432 1e-4 44.89-31.03 70.964-71.759 70.448z"/>
</svg>